<svg width="140" height="143" viewBox="0 0 140 143" fill="none" xmlns="http://www.w3.org/2000/svg">
<g id="Frame">
<path id="Vector" fill-rule="evenodd" clip-rule="evenodd" d="M138.249 50.1333C133.653 35.6159 124.451 22.9917 112.037 14.1733C99.6222 5.3549 84.6722 0.822679 69.451 1.26322C54.2298 1.70376 39.5668 7.09305 27.6833 16.6147C15.7999 26.1364 7.34345 39.2716 3.59495 54.0305C-0.15356 68.7895 1.01016 84.3681 6.90984 98.4063C12.8095 112.445 23.1237 124.178 36.29 131.828C49.4562 139.478 64.7571 142.629 79.8748 140.804C94.9925 138.978 109.103 132.275 120.07 121.71H120.1L120.669 121.14C123.42 118.377 124.962 114.636 124.958 110.737C124.954 106.838 123.403 103.101 120.646 100.344C117.89 97.5873 114.152 96.0367 110.253 96.0323C106.355 96.028 102.613 97.5702 99.8506 100.321V100.311C94.2153 105.826 87.0944 109.579 79.3593 111.11C71.6243 112.641 63.6108 111.884 56.2993 108.931C48.9879 105.979 42.6957 100.959 38.1931 94.4857C33.6904 88.0126 31.1724 80.3673 30.9473 72.4854C30.7223 64.6035 32.7999 56.8269 36.9259 50.1075C41.0519 43.388 47.0474 38.0171 54.1785 34.6522C61.3095 31.2872 69.2668 30.0741 77.0766 31.1613C84.8864 32.2486 92.2099 35.589 98.1507 40.7738L100.121 42.7537C101.041 43.6867 101.555 44.9459 101.551 46.2567C101.547 47.5674 101.024 48.8232 100.097 49.75C99.1705 50.6768 97.9147 51.1995 96.6039 51.2038C95.2932 51.2082 94.0339 50.694 93.1009 49.7733L90.3711 47.0335L90.2711 47.1335C90.2277 47.0116 90.1556 46.9018 90.061 46.8135C85.4259 43.3034 79.8905 41.1798 74.097 40.6892C68.3036 40.1986 62.4898 41.361 57.3304 44.0416C52.171 46.7221 47.8776 50.8109 44.9485 55.8334C42.0193 60.8558 40.5747 66.606 40.782 72.4165C40.9894 78.227 42.8404 83.8595 46.1201 88.6604C49.3999 93.4612 53.9738 97.2335 59.3111 99.5395C64.6485 101.845 70.5304 102.59 76.2741 101.688C82.0179 100.786 87.388 98.2727 91.761 94.4411C92.5844 93.5212 93.0362 92.3281 93.0288 91.0936C93.0214 89.859 92.5553 88.6714 91.721 87.7614C89.7511 85.6315 86.3813 86.1915 84.7113 87.5614C81.6667 90.0376 77.9869 91.6074 74.0924 92.0914C70.1979 92.5754 66.2457 91.9541 62.6876 90.2986C59.1294 88.643 56.1087 86.0199 53.9706 82.729C51.8325 79.4381 50.6633 75.6121 50.5965 71.6882C50.5297 67.7643 51.5681 63.9007 53.5929 60.5389C55.6178 57.1772 58.5474 54.4528 62.0472 52.6771C65.547 50.9014 69.4757 50.146 73.3844 50.4972C77.2931 50.8483 81.0243 52.292 84.1514 54.6631L84.1813 54.6431L85.9513 56.413C88.7142 59.1636 92.4553 60.7059 96.3539 60.7015C100.253 60.6971 103.99 59.1465 106.747 56.3898C109.504 53.633 111.054 49.8953 111.059 45.9967C111.063 42.0981 109.521 38.357 106.77 35.5941L106.55 35.3741C106.516 35.2167 106.44 35.0716 106.33 34.9541C99.1673 28.0996 90.1407 23.5116 80.3816 21.765C70.6225 20.0183 60.5649 21.1907 51.4691 25.1352C42.3734 29.0797 34.644 35.6209 29.2497 43.9391C23.8553 52.2573 21.036 61.9825 21.1447 71.8962C21.2535 81.8098 24.2855 91.4708 29.8611 99.6687C35.4366 107.867 43.3077 114.237 52.4877 117.981C61.6678 121.725 71.7487 122.676 81.4671 120.716C91.1856 118.755 100.109 113.97 107.12 106.96C107.135 106.926 107.152 106.893 107.17 106.86C108.073 106.016 109.259 105.541 110.495 105.527C111.731 105.513 112.927 105.962 113.848 106.786C114.77 107.609 115.35 108.748 115.474 109.977C115.598 111.207 115.258 112.439 114.52 113.43C105.389 122.757 93.4715 128.861 80.5668 130.821C67.6621 132.782 54.4699 130.492 42.9809 124.297C31.4919 118.102 22.3293 108.338 16.8758 96.4796C11.4223 84.6207 9.97363 71.3098 12.7485 58.5555C15.5234 45.8011 22.3713 34.2952 32.2588 25.774C42.1463 17.2528 54.5371 12.1786 67.5613 11.317C80.5856 10.4554 93.5367 13.8532 104.461 20.9976C115.384 28.1421 123.688 38.6456 128.119 50.9233C128.849 52.9532 130.559 55.913 134.049 55.693C134.724 55.6923 135.39 55.5352 135.994 55.234C136.598 54.9328 137.124 54.4958 137.531 53.9572C137.938 53.4185 138.214 52.793 138.339 52.1295C138.463 51.4661 138.433 50.7828 138.249 50.1333Z" stroke="white" stroke-width="1.9999" stroke-miterlimit="10" stroke-linecap="round" stroke-linejoin="round"/>
</g>
</svg>
